#!OML:ASF H:\Terrain\Patient Classification 1\Walking\steve\steve.ASF
:FULLY-SPECIFIED
:DEGREES
141
root 8.82818 15.8584 -4.91382 4.91337 1.47142 0.430038
lowerback 3.01811 0.767105 1.33318
upperback -1.51276 1.13869 1.8283
thorax -3.25981 0.55942 1.06739
lowerneck -9.0065 -1.31944 -3.06673
upperneck 10.5306 -1.68267 2.74805
head 4.68254 -0.778847 1.23675
rclavicle -1.61016e-014 3.97569e-015
rhumerus -70.0768 -39.7861 -35.8754
rradius 13.9332
rwrist 33.7752
rhand -19.009 -35.4916
rfingers 7.12502
rthumb 7.2965 -65.3458
lclavicle -1.61016e-014 3.97569e-015
lhumerus -22.0425 -7.29214 90.2424
lradius 50.0595
lwrist 24.5288
lhand -25.4317 -15.5188
lfingers 7.12502
lthumb 1.09464 14.4581
rfemur -37.4083 3.35978 23.912
rtibia 42.1957
rfoot -8.60101 5.20962
rtoes 7.88776
lfemur -0.335507 1.26042 -22.7322
ltibia 55.6927
lfoot 14.6258 20.2005
ltoes 19.1803
142
root 8.83204 15.9124 -4.65827 4.89724 1.65379 0.0244353
lowerback 2.96178 0.967379 1.80678
upperback -1.46186 1.42395 1.84339
thorax -3.16745 0.692049 0.802651
lowerneck -9.25912 -1.49199 -2.95767
upperneck 10.8047 -1.92812 2.74409
head 4.81563 -0.892882 1.19969
rclavicle -5.46658e-016 -2.06736e-014
rhumerus -66.3771 -39.2103 -41.2895
rradius 14.5963
rwrist 29.926
rhand -18.5074 -35.3811
rfingers 7.12502
rthumb 7.78063 -65.218
lclavicle -5.46658e-016 -2.06736e-014
lhumerus -22.7109 -7.46966 90.7654
lradius 48.3652
lwrist 23.9089
lhand -23.7315 -15.2345
lfingers 7.12502
lthumb 2.73668 14.7277
rfemur -36.0122 3.24997 24.4187
rtibia 41.7352
rfoot -9.53853 5.52543
rtoes 9.17108
lfemur -2.53159 1.3047 -22.1155
ltibia 58.7506
lfoot 14.1307 16.2797
ltoes 14.6138
143
root 8.83413 15.9676 -4.40558 4.98241 1.68936 -0.589916
lowerback 2.79566 1.15427 2.40462
upperback -1.47314 1.69583 1.94766
thorax -3.07255 0.816875 0.563943
lowerneck -9.19041 -1.59441 -2.83926
upperneck 10.8117 -2.07453 2.6607
head 4.80851 -0.965502 1.14478
rclavicle -1.21756e-014 1.19271e-014
rhumerus -62.0136 -37.5623 -47.5101
rradius 15.1151
rwrist 25.6408
rhand -18.3564 -35.1208
rfingers 7.12502
rthumb 7.92639 -64.9521
lclavicle -1.21756e-014 1.19271e-014
lhumerus -23.5856 -7.75014 91.337
lradius 46.8337
lwrist 23.7988
lhand -24.2464 -15.2347
lfingers 7.12502
lthumb 2.2394 14.7333
rfemur -34.792 3.16288 25.2223
rtibia 41.3048
rfoot -10.419 5.65827
rtoes 8.92498
lfemur -5.00731 1.70051 -21.2164
ltibia 61.5502
lfoot 14.1856 11.1484
ltoes 2.79102
144
root 8.834 16.0279 -4.15636 5.17007 1.49833 -1.22395
lowerback 2.46252 1.35802 2.91143
upperback -1.41433 1.97445 2.07246
thorax -2.81043 0.949871 0.403998
lowerneck -9.61438 -1.68125 -2.53438
upperneck 11.2967 -2.19104 2.32035
head 5.02588 -1.02791 0.977886
rclavicle -3.16068e-014 2.14687e-014
rhumerus -57.3829 -35.127 -54.1839
rradius 16.0619
rwrist 20.8048
rhand -18.5428 -35.3364
rfingers 7.12502
rthumb 7.74646 -65.1745
lclavicle -3.16068e-014 2.14687e-014
lhumerus -24.2707 -8.08537 91.8469
lradius 45.2246
lwrist 24.2752
lhand -25.6232 -15.3067
lfingers 7.12502
lthumb 0.90966 14.6711
rfemur -33.7138 3.25063 26.0407
rtibia 40.824
rfoot -10.944 5.85561
rtoes 10.1622
lfemur -7.6451 2.428 -20.2971
ltibia 64.0644
lfoot 13.0885 6.8921
ltoes -8.90222
145
root 8.83278 16.0853 -3.90898 5.29142 1.37379 -1.4552
lowerback 2.29495 1.53718 2.97944
upperback -1.40951 2.20865 2.10014
thorax -2.70664 1.06688 0.388595
lowerneck -10.0061 -1.77944 -2.3987
upperneck 11.9324 -2.33068 2.20486
head 5.28979 -1.09413 0.905581
rclavicle -2.09221e-014 1.59028e-014
rhumerus -54.4149 -34.4506 -57.5713
rradius 16.5901
rwrist 19.2207
rhand -18.8059 -36.5757
rfingers 7.12502
rthumb 7.49248 -66.423
lclavicle -2.09221e-014 1.59028e-014
lhumerus -24.931 -7.42657 92.0007
lradius 43.1001
lwrist 22.8486
lhand -22.9784 -14.3129
lfingers 7.12502
lthumb 3.46392 15.6387
rfemur -32.5471 3.22441 26.3889
rtibia 40.2811
rfoot -11.3686 6.25463
rtoes 10.9776
lfemur -10.0284 2.9831 -19.8759
ltibia 66.1977
lfoot 10.8391 4.31029
ltoes -13.3736
146
root 8.83448 16.1394 -3.66305 5.37051 1.34746 -1.60037
lowerback 2.23736 1.69544 2.99971
upperback -1.50906 2.42178 2.10688
thorax -2.77347 1.17157 0.375095
lowerneck -10.0039 -1.89004 -2.37992
upperneck 12.2722 -2.4892 2.20817
head 5.39886 -1.1696 0.890831
rclavicle 1.2424e-015 3.18055e-015
rhumerus -52.3542 -35.2746 -58.7451
rradius 16.2816
rwrist 20.0425
rhand -19.3844 -37.9397
rfingers 7.12502
rthumb 6.93406 -67.8061
lclavicle 1.2424e-015 3.18055e-015
lhumerus -26.0087 -7.10107 92.3701
lradius 41.1537
lwrist 22.3193
lhand -21.4557 -13.8692
lfingers 7.12502
lthumb 4.93435 16.0533
rfemur -31.2657 3.05864 26.6437
rtibia 39.7006
rfoot -12.1895 6.65194
rtoes 7.17009
lfemur -12.3795 3.27112 -19.5779
ltibia 67.911
lfoot 8.85223 3.33832
ltoes -12.0047
147
root 8.84347 16.1858 -3.41697 5.44974 1.24261 -1.63288
lowerback 2.17294 1.80827 2.88333
upperback -1.54617 2.56781 2.14306
thorax -2.78003 1.24684 0.47222
lowerneck -9.82818 -1.87391 -2.47834
upperneck 12.2984 -2.4629 2.25708
head 5.3785 -1.15898 0.925606
rclavicle 1.98288e-014 3.81667e-014
rhumerus -49.4818 -34.6571 -61.3616
rradius 16.5005
rwrist 19.0402
rhand -21.2629 -38.2245
rfingers 7.12502
rthumb 5.12048 -68.1427
lclavicle 1.98288e-014 3.81667e-014
lhumerus -27.0923 -6.48913 92.6701
lradius 39.2262
lwrist 21.6088
lhand -20.9124 -13.8531
lfingers 7.12502
lthumb 5.45892 16.0565
rfemur -30.0176 2.87016 26.7571
rtibia 39.1487
rfoot -12.9935 7.01433
rtoes 3.71737
lfemur -14.6603 3.68175 -19.4952
ltibia 69.1775
lfoot 6.7803 3.45153
ltoes -12.6768
148
root 8.84999 16.2286 -3.1727 5.61708 1.17973 -1.64816
lowerback 2.05518 1.86232 2.68687
upperback -1.56312 2.63043 2.20158
thorax -2.74182 1.28301 0.642829
lowerneck -9.76221 -1.85273 -2.65164
upperneck 12.4877 -2.41855 2.30409
head 5.42793 -1.14219 0.972214
rclavicle 2.87741e-014 -1.19271e-014
rhumerus -45.9543 -32.0508 -65.5679
rradius 17.4226
rwrist 15.615
rhand -23.5084 -38.5715
rfingers 7.12502
rthumb 2.95213 -68.5308
lclavicle 2.87741e-014 -1.19271e-014
lhumerus -28.0401 -5.47156 92.7525
lradius 37.0978
lwrist 20.4091
lhand -20.8167 -13.5782
lfingers 7.12502
lthumb 5.55136 16.329
rfemur -28.9447 2.77266 26.8126
rtibia 38.6169
rfoot -13.4553 7.34025
rtoes 3.59943
lfemur -16.8878 4.12287 -19.5248
ltibia 70.0797
lfoot 4.39555 3.91379
ltoes -17.1882
149
root 8.852 16.2704 -2.92799 5.86023 1.18031 -1.86508
lowerback 1.86252 1.94269 2.73226
upperback -1.68728 2.73659 2.25036
thorax -2.76109 1.33504 0.667929
lowerneck -9.69633 -1.90614 -2.73664
upperneck 12.8549 -2.48788 2.32255
head 5.53448 -1.17853 0.986539
rclavicle 1.64991e-014 1.35174e-014
rhumerus -42.9423 -29.0517 -69.4823
rradius 18.4306
rwrist 11.8014
rhand -22.6928 -40.2108
rfingers 7.12502
rthumb 3.73979 -70.1578
lclavicle 1.64991e-014 1.35174e-014
lhumerus -29.1056 -4.50135 92.7099
lradius 34.944
lwrist 19.239
lhand -21.2082 -13.6605
lfingers 7.12502
lthumb 5.17329 16.2564
rfemur -27.9686 2.8793 27.0616
rtibia 38.1382
rfoot -13.9588 7.51627
rtoes 3.45459
lfemur -19.1669 4.36617 -19.3318
ltibia 70.6739
lfoot 2.6386 4.33917
ltoes -18.4395
150
root 8.8559 16.3055 -2.67988 5.98192 1.11959 -2.05256
lowerback 1.70279 2.04032 2.8124
upperback -1.80063 2.86635 2.2482
thorax -2.78331 1.39751 0.619843
lowerneck -9.32094 -1.87907 -2.57661
upperneck 12.8401 -2.46086 2.15998
head 5.46128 -1.17159 0.914689
rclavicle -7.7526e-015 1.59028e-014
rhumerus -40.4562 -26.0809 -72.8518
rradius 19.491
rwrist 8.64837
rhand -23.4755 -38.9432
rfingers 7.12502
rthumb 2.98385 -68.902
lclavicle -7.7526e-015 1.59028e-014
lhumerus -30.2731 -3.39687 92.4869
lradius 33.083
lwrist 17.8535
lhand -21.07 -12.6627
lfingers 7.12502
lthumb 5.30672 17.2509
rfemur -26.8298 3.09305 27.2784
rtibia 37.7129
rfoot -14.6009 7.60435
rtoes 2.83922
lfemur -21.2485 4.53112 -19.0988
ltibia 70.9511
lfoot 1.17825 4.85592
ltoes -12.0663
